<svg xmlns="http://www.w3.org/2000/svg" width="26.111" height="43.946" viewBox="0 0 26.111 43.946"><path d="M104.408,283.874s9.574-.4,9.916,4.282v2.32S110.047,285.456,104.408,283.874Z" transform="translate(-90.851 -283.866)" fill="#3d3c59"/><path d="M95.087,291.536a41.451,41.451,0,0,0-10.743-7.367s-4.806,0-7.737,2.117c0,0,5.917-1.167,9.121.468A20.575,20.575,0,0,1,93.95,293Z" transform="translate(-72.045 -284.071)" fill="#3d3c59"/><path d="M83.91,297.346s-7.588-7.588-16.6-4.494c0,0-1.489,1-1.995,4.519,0,0-.855,5.074,2.238,7.027,0,0-3.093-4.477.122-7.449a8.854,8.854,0,0,1,6.635-2.992s4.274-.142,8.67,4.009Z" transform="translate(-64.335 -289.443)" fill="#3d3c59"/><path d="M85.766,304.278s-7.495-6.133-12.5-2.022c0,0-4.722,3.636-.95,7.734,0,0-.859-4.572,2.113-5.508,0,0,2.117-1.14,8.874.366Z" transform="translate(-68.152 -295.347)" fill="#3d3c59"/><path d="M86.242,319.427l.407-4.03s2.044-4.745.2-7.027a2.338,2.338,0,0,0-1.526,1.695l.428,9H84.573s-4.762-1.547-7.714.285H74.072a7.292,7.292,0,0,0-6.838-.163l-2.035-.122-.513-4.6-.8-1.422.617,6.388s-2.361-.57-1.954,1.791c0,0,.366,6.35,2.687,6.024l.558,10.671a1.851,1.851,0,0,0,.932,1.512l8.583,4.895a.518.518,0,0,0,.525-.006l8.981-5.412a1.852,1.852,0,0,0,.9-1.586v-9.992s1.988,1.52,2.887-5.549A1.979,1.979,0,0,0,86.242,319.427Zm-21.166,7.2h-.57c-.733-.611-1.126-6.187-1.126-6.187.706-.529,1.085,0,1.085,0C65.117,321.519,65.076,326.632,65.076,326.632Zm12.646,9.652a.4.4,0,0,1-.128,0,3.342,3.342,0,0,1-1.633-1.135.412.412,0,0,0-.658.068c-.782,1.284-1.72,1.057-1.72,1.057-1.341-.164-1.578-1.852-1.62-2.508a.412.412,0,0,1,.207-.383l3.214-1.842a.413.413,0,0,1,.389-.012l3.084,1.523a.415.415,0,0,1,.223.287C79.574,335.811,78.067,336.223,77.722,336.284ZM85,328.2a5.711,5.711,0,0,1-3.073,2.91,19.731,19.731,0,0,1-3.786-1.3H76.921v-.631a1.092,1.092,0,0,0,.916-.936l-.414-.346c-1.737,2.171-4,0-4,0l-.436.366c.256.651,1.25.936,1.25.936v.611l-1.25.081-3.716,1.221c-1.547-.2-3.094-2.972-3.094-2.972l-.9-8.385h.834c-.379,6.512,4.274,5.861,4.274,5.861,4.478-.046,4.213-5.21,4.213-5.21h1.974c.081,5.963,4.538,5.21,4.538,5.21,4.6-.2,3.826-5.861,3.826-5.861h.733Zm1.622-1.567h-.57s-.041-5.113.61-6.187c0,0,.379-.529,1.085,0C87.749,320.445,87.356,326.021,86.623,326.632Z" transform="translate(-62.505 -300.442)" fill="#3d3c59"/></svg>